<?xml version="1.0" encoding="UTF-8" standalone="no"?>
<svg width="83px" height="32px" viewBox="0 0 83 32" version="1.1" xmlns="http://www.w3.org/2000/svg" xmlns:xlink="http://www.w3.org/1999/xlink" xmlns:sketch="http://www.bohemiancoding.com/sketch/ns">
    <!-- Generator: Sketch 3.3.3 (12072) - http://www.bohemiancoding.com/sketch -->
    <title>idoc-logo</title>
    <desc>Created with Sketch.</desc>
    <defs></defs>
    <g id="Page-1" stroke="none" stroke-width="1" fill="none" fill-rule="evenodd" sketch:type="MSPage">
        <g id="idoc-logo" sketch:type="MSLayerGroup" transform="translate(-1.000000, -1.000000)" fill="#333333">
            <path d="M9.04361979,31.68 L1.00846354,31.68 L1.00846354,17.16 C1.00846354,13.2 4,10.4742773 8,10.4742773 L9.04361979,10.4742773 L9.04361979,31.68 L9.04361979,31.68 Z M5.04752604,1.00933594 C6.13607315,1.00933594 7.07779551,1.38863879 7.87272136,2.14725585 C8.6676472,2.90587293 9.06510416,3.80272919 9.06510416,4.83785156 C9.06510416,5.94387272 8.68913136,6.85136364 7.93717448,7.56035156 C7.1852176,8.26933948 6.22201108,8.62382812 5.04752604,8.62382812 C3.873041,8.62382812 2.90983449,8.26933948 2.1578776,7.56035156 C1.40592072,6.85136364 1.02994792,5.94387272 1.02994792,4.83785156 C1.02994792,3.80272919 1.42740488,2.90587293 2.22233073,2.14725585 C3.01725657,1.38863879 3.95897893,1.00933594 5.04752604,1.00933594 L5.04752604,1.00933594 L5.04752604,1.00933594 Z M33.6634115,2.64708984 L33.6634115,20.3220703 C33.6634115,23.5692349 32.8040451,26.2137203 31.0852864,28.2556054 C30.0970003,29.4325254 28.8401769,30.3683754 27.3147787,31.0631835 C25.7893804,31.7579918 24.2246173,32.1053906 22.6204427,32.1053906 C19.4264163,32.1053906 16.7337349,31.0419247 14.5423177,28.9149609 C12.3509005,26.7879972 11.2552083,24.1789607 11.2552083,21.0877734 C11.2552083,18.0958444 12.3437391,15.5080773 14.5208333,13.3243946 C16.6979276,11.1407117 19.2760268,10.0488867 22.2552083,10.0488867 C22.7278669,10.0488867 23.0859408,18.1738476 22.4270833,18.1738476 C21.59635,18.1738476 20.883792,18.475163 20.289388,19.0778028 C19.694984,19.6804425 19.3977864,20.4071442 19.3977864,21.2579297 C19.3977864,22.0803557 19.7057261,22.7857881 20.3216145,23.3742481 C20.9375031,23.962708 21.6751259,24.2569335 22.5345052,24.2569335 C24.5970155,24.2569335 25.6282552,22.8460688 25.6282552,20.0242969 L25.6282552,2.64708984 L33.6634115,2.64708984 L33.6634115,2.64708984 Z M48.055664,10.0276172 C51.0921376,10.0276172 53.6953016,11.1088075 55.8652344,13.2712207 C58.0351671,15.4336339 59.1201172,18.0249458 59.1201172,21.0452344 C59.1201172,24.1080622 58.0208443,26.7170986 55.8222656,28.8724219 C53.6236869,31.0277451 50.9703931,32.1053906 47.8623047,32.1053906 C44.7542163,32.1053906 42.0973417,31.0242002 39.8916016,28.8617871 C37.6858613,26.6993739 36.5830077,24.0938824 36.5830077,21.0452344 C36.5830077,17.9398672 37.6858613,15.327286 39.8916016,13.2074121 C42.0973417,11.0875382 44.8186687,10.0276172 48.055664,10.0276172 L48.055664,10.0276172 L48.055664,10.0276172 Z M47.8361929,16.5017725 C46.6066295,16.5017725 45.5615164,16.9430254 44.7008219,17.8255445 C43.8401275,18.7080637 43.4097867,19.7883728 43.4097867,21.066504 C43.4097867,22.3243473 43.8452505,23.3995846 44.7161913,24.2922476 C45.5871321,25.1849106 46.6271223,25.6312353 47.8361929,25.6312353 C49.0657565,25.6312353 50.1159928,25.1849106 50.9869336,24.2922476 C51.8578744,23.3995846 52.2933383,22.3243473 52.2933383,21.066504 C52.2933383,19.7883728 51.8629975,18.7080637 51.0023031,17.8255445 C50.1416088,16.9430254 49.0862492,16.5017725 47.8361929,16.5017725 L47.8361929,16.5017725 L47.8361929,16.5017725 Z M83.5930989,21.6195118 C83.3639312,24.6823396 82.2109479,27.1992089 80.1341145,29.1701953 C78.0572813,31.1411817 75.5293117,32.1266601 72.5501303,32.1266601 C69.3990728,32.1266601 66.7386176,31.0419249 64.5686849,28.8724219 C62.3987521,26.7029189 61.3138021,24.0442541 61.3138021,20.8963476 C61.3138021,17.9044186 62.4094943,15.3450107 64.6009115,13.2180469 C66.7923287,11.0910831 69.4205576,10.0276172 72.4856771,10.0276172 C75.1640759,10.0276172 77.5273335,10.8642104 79.5755208,12.5374219 C81.6237081,14.2106333 75.2571615,19.2373243 75.2571615,19.2373243 C74.5553351,18.3298196 73.6673231,17.8760743 72.5930989,17.8760743 C71.6764277,17.8760743 70.9244821,18.1738447 70.3372396,18.7693946 C69.7499971,19.3649444 69.4563803,20.1164604 69.4563803,21.0239649 C69.4563803,21.9456492 69.7679005,22.7184343 70.3909505,23.3423438 C71.0140005,23.9662532 71.7910109,24.2782031 72.7220052,24.2782031 C74.0826891,24.2782031 75.0494763,23.4912384 75.6223959,21.9172851 L83.5930989,21.6195118 L83.5930989,21.6195118 Z" id="idoc" sketch:type="MSShapeGroup"></path>
        </g>
    </g>
</svg>