<?xml version="1.0" encoding="UTF-8" standalone="no"?>
<svg width="64px" height="25px" viewBox="0 0 64 25" version="1.1" xmlns="http://www.w3.org/2000/svg" xmlns:xlink="http://www.w3.org/1999/xlink" xmlns:sketch="http://www.bohemiancoding.com/sketch/ns">
    <!-- Generator: Sketch 3.3.3 (12072) - http://www.bohemiancoding.com/sketch -->
    <title>idoc</title>
    <desc>Created with Sketch.</desc>
    <defs></defs>
    <g id="Page-1" stroke="none" stroke-width="1" fill="none" fill-rule="evenodd" sketch:type="MSPage">
        <path d="M6.78271484,7.93505859 L6.78271484,24 L0.756347656,24 L0.756347656,7.93505859 L6.78271484,7.93505859 Z M3.78564453,0.764648438 C4.60205486,0.764648438 5.30834663,1.05199908 5.90454102,1.62670898 C6.5007354,2.20141889 6.79882812,2.88085545 6.79882812,3.66503906 C6.79882812,4.50293388 6.51684852,5.190427 5.95288086,5.72753906 C5.3889132,6.26465112 4.66650831,6.53320312 3.78564453,6.53320312 C2.90478075,6.53320312 2.18237587,6.26465112 1.6184082,5.72753906 C1.05444054,5.190427 0.772460938,4.50293388 0.772460938,3.66503906 C0.772460938,2.88085545 1.07055366,2.20141889 1.66674805,1.62670898 C2.26294243,1.05199908 2.9692342,0.764648438 3.78564453,0.764648438 L3.78564453,0.764648438 Z M20.2211914,2.00537109 L26.2475586,2.00537109 L26.2475586,15.3955078 C26.2475586,17.855481 25.6030338,19.858879 24.3139648,21.4057617 C23.5727502,22.2973677 22.6301327,23.006345 21.486084,23.5327148 C20.3420353,24.0590847 19.168463,24.3222656 17.965332,24.3222656 C15.5698122,24.3222656 13.5503012,23.5166096 11.9067383,21.9052734 C10.2631754,20.2939373 9.44140625,18.3173945 9.44140625,15.9755859 C9.44140625,13.708973 10.2578043,11.7485434 11.890625,10.0942383 C13.5234457,8.43993313 15.4570201,7.61279297 17.6914062,7.61279297 C18.0459002,7.61279297 18.5830042,7.64501921 19.3027344,7.70947266 L19.3027344,14.3481445 C18.8085913,13.9614238 18.3144556,13.7680664 17.8203125,13.7680664 C17.1972625,13.7680664 16.662844,13.9963356 16.217041,14.4528809 C15.771238,14.9094261 15.5483398,15.4599577 15.5483398,16.1044922 C15.5483398,16.7275422 15.7792946,17.2619607 16.2412109,17.7077637 C16.7031273,18.1535667 17.2563444,18.3764648 17.9008789,18.3764648 C19.4477616,18.3764648 20.2211914,17.3076279 20.2211914,15.1699219 L20.2211914,2.00537109 Z M37.043457,7.59667969 C39.3208122,7.59667969 41.2731852,8.41576329 42.9006348,10.0539551 C44.5280843,11.6921469 45.3417969,13.655262 45.3417969,15.9433594 C45.3417969,18.2636835 44.5173422,20.2402262 42.8684082,21.8730469 C41.2194742,23.5058675 39.2295038,24.3222656 36.8984375,24.3222656 C34.5673712,24.3222656 32.5747153,23.503182 30.9204102,21.8649902 C29.266105,20.2267984 28.4389648,18.2529412 28.4389648,15.9433594 C28.4389648,13.5908085 29.266105,11.6115803 30.9204102,10.0056152 C32.5747153,8.39965017 34.6157105,7.59667969 37.043457,7.59667969 L37.043457,7.59667969 Z M36.8823242,13.5424805 C36.2377897,13.5424805 35.6899437,13.7761207 35.2387695,14.2434082 C34.7875954,14.7106957 34.5620117,15.2827115 34.5620117,15.9594727 C34.5620117,16.6254916 34.7902809,17.1948219 35.2468262,17.6674805 C35.7033714,18.1401391 36.248532,18.3764648 36.8823242,18.3764648 C37.5268587,18.3764648 38.0773903,18.1401391 38.5339355,17.6674805 C38.9904808,17.1948219 39.21875,16.6254916 39.21875,15.9594727 C39.21875,15.2827115 38.9931663,14.7106957 38.5419922,14.2434082 C38.0908181,13.7761207 37.5376009,13.5424805 36.8823242,13.5424805 L36.8823242,13.5424805 Z M57.7167969,16.6040039 L63.6948242,16.378418 C63.5229484,18.6987421 62.6582109,20.6054613 61.1005859,22.0986328 C59.542961,23.5918043 57.6469838,24.3383789 55.4125977,24.3383789 C53.0493046,24.3383789 51.0539632,23.5166098 49.4265137,21.8730469 C47.7990641,20.229484 46.9853516,18.215344 46.9853516,15.8305664 C46.9853516,13.5639535 47.8071207,11.6250081 49.4506836,10.0136719 C51.0942465,8.40233569 53.0654182,7.59667969 55.3642578,7.59667969 C57.3730569,7.59667969 59.1455001,8.23046241 60.6816406,9.49804688 C62.2177811,10.7656313 63.1738262,12.3823144 63.5498047,14.3481445 L57.4428711,14.5737305 C56.9165013,13.886227 56.2504923,13.5424805 55.4448242,13.5424805 C54.7573208,13.5424805 54.1933616,13.7680642 53.7529297,14.2192383 C53.3124978,14.6704124 53.0922852,15.2397427 53.0922852,15.9272461 C53.0922852,16.6254918 53.3259254,17.2109351 53.7932129,17.6835938 C54.2605004,18.1562524 54.8432582,18.3925781 55.5415039,18.3925781 C56.5620168,18.3925781 57.2871072,17.7963927 57.7167969,16.6040039 L57.7167969,16.6040039 Z" id="idoc" fill="#333333" sketch:type="MSShapeGroup"></path>
    </g>
</svg>